<svg width="592" height="592" viewBox="0 0 592 592" fill="none" xmlns="http://www.w3.org/2000/svg">
<g clip-path="url(#clip0_202_12)">
<path d="M296 579.281C291.375 579.281 286.75 577.894 282.819 575.234C112.503 460.65 14.1061 289.409 12.7186 105.334C12.603 94.5813 19.8874 85.1 30.2936 82.325L289.987 13.4125C293.919 12.3719 298.081 12.3719 302.128 13.4125L561.822 82.325C572.228 85.1 579.397 94.5813 579.397 105.334C578.125 289.294 479.612 460.65 309.297 575.234C305.25 577.894 300.625 579.281 296 579.281Z" fill="#252525"/>
<g filter="url(#filter0_i_202_12)">
<path d="M246.42 470.703C231.221 472.514 228.326 445.2 228.779 431.318C226.969 425.885 232.247 393.14 235.111 377.446C234.75 368.03 251.547 338.212 259.991 324.48C263.972 318.685 272.808 313.011 276.728 310.899C276.728 315.607 275.22 324.631 274.466 328.554C274.104 338.332 270.093 354.66 268.133 361.601C266.686 369.931 270.546 373.523 272.657 374.277C276.999 374.277 288.037 384.236 293.013 389.216C300.974 393.562 315.329 412.757 321.511 421.811C325.13 427.968 336.59 444.295 341.867 451.689C348.381 456.397 347.898 459.083 346.843 459.838C349.738 469.978 353.779 468.892 355.438 467.081C363.037 463.822 364.937 466.628 364.937 468.439C368.918 473.147 370.214 473.117 370.365 472.514C381.222 468.53 391.777 472.664 395.697 475.23C401.849 471.246 386.801 462.403 378.508 458.48C369.099 459.928 364.635 452.444 363.58 448.52C359.599 439.466 350.16 429.959 345.938 426.338C340.51 422.716 325.582 407.928 318.797 400.986C303.598 391.208 292.862 370.655 289.394 361.601C285.775 353.272 290.902 328.856 293.917 317.689C297.174 307.911 305.829 313.615 309.75 317.689C319.883 313.705 322.717 319.349 322.868 322.669C319.249 327.739 325.884 327.196 329.653 326.291C334.358 322.669 341.565 321.16 344.581 320.858C355.076 315.788 365.54 306.372 369.461 302.297C365.118 295.778 371.27 287.811 374.889 284.642C393.345 272.328 404.895 260.799 408.363 256.574C424.648 237.742 421.783 208.89 418.315 196.817C414.334 189.212 405.197 165.883 401.125 155.169C395.335 143.942 397.205 115.784 398.864 103.108C412.253 89.708 412.887 84.5472 411.529 83.6418C401.759 82.9174 405.347 79.7183 408.363 78.2093C415.239 78.2093 415.751 76.0967 415.148 75.0404C410.082 73.9539 408.514 69.1552 408.363 66.8917C406.554 60.3728 393.737 60.5539 387.555 61.4593C379.231 62.1836 378.357 65.3827 378.96 66.8917C380.769 74.135 380.619 75.3422 380.317 75.0404C378.508 80.835 379.563 84.9999 380.317 86.358C382.126 89.9796 380.166 100.241 378.96 104.919C376.427 113.249 378.809 136.457 380.317 147.02C385.022 151.728 391.324 167.392 393.888 174.635C402.573 192.743 399.014 200.892 396.149 202.703C393.978 204.513 389.816 193.498 388.007 187.763C385.474 184.142 376.397 179.011 372.175 176.899C368.918 177.623 363.882 172.07 361.771 169.203C356.342 157.251 347.748 161.205 344.129 164.676C349.557 170.108 339.454 171.768 333.725 171.919C327.211 169.746 300.552 167.392 288.037 166.486C272.114 165.038 247.023 176.144 236.469 181.878C226.698 182.24 220.033 186.858 217.922 189.122C207.427 186.949 199.979 191.838 197.566 194.554C189.605 194.192 179.17 200.137 174.948 203.155C172.053 204.966 162.886 205.117 158.664 204.966C153.597 205.328 151.728 194.554 151.426 189.122C150.34 186.224 141.927 180.973 137.855 178.709C137.493 172.19 132.276 165.43 129.713 162.865C129.713 150.913 125.793 159.092 123.832 164.676C122.747 166.849 118.555 171.617 116.595 173.73C119.128 177.351 118.856 182.18 118.404 184.142C115.509 188.126 110.262 194.856 108 197.723C112.704 197.361 113.579 199.685 113.428 200.892C113.428 204.151 116.746 207.381 118.404 208.588C123.832 215.107 124.285 218.849 123.832 219.905C118.766 223.527 121.721 228.054 123.832 229.865C125.642 233.849 127.3 235.75 127.904 236.203C128.989 230.408 133.483 233.788 135.594 236.203C143.917 239.824 133.935 242.54 127.904 243.446C126.818 245.257 135.594 255.065 140.117 259.743C146.993 258.657 148.41 262.007 148.259 263.817C146.45 266.715 149.013 267.439 150.521 267.439C160.654 260.92 158.965 269.25 156.854 274.23C159.749 278.213 170.123 284.34 174.948 286.905C187.614 285.819 195.907 290.074 198.471 292.338C204.985 291.251 211.137 293.696 213.398 295.054C228.598 289.622 239.333 291.885 242.801 293.696C253.296 293.334 251.396 303.806 249.134 309.088C245.877 318.142 234.81 331.572 229.683 337.155C220.636 347.658 220.184 356.32 221.088 359.338C224.345 364.77 221.239 390.574 219.279 402.797C218.193 415.111 214.002 431.468 212.041 438.108C210.594 441.73 212.645 459.234 213.851 467.534C214.575 476.588 224.406 482.775 229.231 484.737C228.507 482.564 230.437 480.209 231.493 479.304C233.302 477.855 253.055 483.831 262.705 487C264.153 486.638 262.102 481.718 260.896 479.304C263.067 480.753 266.022 479.908 267.229 479.304C264.333 474.958 252.15 471.759 246.42 470.703Z" fill="#B85E0F"/>
</g>
</g>
<defs>
<filter id="filter0_i_202_12" x="108" y="61" width="315" height="428" filterUnits="userSpaceOnUse" color-interpolation-filters="sRGB">
<feFlood flood-opacity="0" result="BackgroundImageFix"/>
<feBlend mode="normal" in="SourceGraphic" in2="BackgroundImageFix" result="shape"/>
<feColorMatrix in="SourceAlpha" type="matrix" values="0 0 0 0 0 0 0 0 0 0 0 0 0 0 0 0 0 0 127 0" result="hardAlpha"/>
<feOffset dx="2" dy="2"/>
<feGaussianBlur stdDeviation="2"/>
<feComposite in2="hardAlpha" operator="arithmetic" k2="-1" k3="1"/>
<feColorMatrix type="matrix" values="0 0 0 0 0 0 0 0 0 0 0 0 0 0 0 0 0 0 0.5 0"/>
<feBlend mode="normal" in2="shape" result="effect1_innerShadow_202_12"/>
</filter>
<clipPath id="clip0_202_12">
<rect width="592" height="592" fill="white"/>
</clipPath>
</defs>
</svg>
