<svg width="592" height="592" viewBox="0 0 592 592" fill="none" xmlns="http://www.w3.org/2000/svg">
<g clip-path="url(#clip0_201_2)">
<path d="M296 579.281C291.375 579.281 286.75 577.894 282.819 575.234C112.503 460.65 14.1061 289.409 12.7186 105.334C12.603 94.5813 19.8874 85.1 30.2936 82.325L289.987 13.4125C293.919 12.3719 298.081 12.3719 302.128 13.4125L561.822 82.325C572.228 85.1 579.397 94.5813 579.397 105.334C578.125 289.294 479.612 460.65 309.297 575.234C305.25 577.894 300.625 579.281 296 579.281Z" fill="#252525"/>
<g filter="url(#filter0_i_201_2)">
<path d="M268.906 488.299C257.057 489.71 254.801 468.424 255.153 457.604C253.743 453.371 257.857 427.851 260.09 415.62C259.808 408.281 272.902 385.043 279.485 374.341C282.588 369.825 289.476 365.403 292.532 363.757C292.532 367.426 291.357 374.459 290.769 377.516C290.487 385.137 287.36 397.862 285.832 403.271C284.704 409.763 287.713 412.562 289.359 413.15C292.744 413.15 301.348 420.912 305.227 424.793C311.434 428.18 322.624 443.139 327.443 450.195C330.264 454.993 339.198 467.718 343.312 473.481C348.39 477.15 348.013 479.243 347.191 479.831C349.447 487.734 352.598 486.888 353.891 485.476C359.815 482.936 361.296 485.124 361.296 486.535C364.399 490.204 365.41 490.18 365.528 489.71C373.991 486.605 382.219 489.828 385.275 491.827C390.071 488.722 378.34 481.831 371.875 478.773C364.54 479.902 361.061 474.069 360.238 471.011C357.135 463.955 349.777 456.546 346.485 453.723C342.254 450.901 330.617 439.376 325.327 433.966C313.479 426.345 305.11 410.328 302.406 403.271C299.585 396.78 303.582 377.751 305.932 369.049C308.471 361.428 315.218 365.874 318.275 369.049C326.174 365.944 328.383 370.342 328.501 372.93C325.68 376.881 330.852 376.458 333.791 375.752C337.458 372.93 343.077 371.754 345.427 371.518C353.609 367.567 361.766 360.229 364.822 357.053C361.437 351.973 366.233 345.763 369.054 343.294C383.441 333.697 392.445 324.712 395.149 321.419C407.844 306.742 405.61 284.257 402.907 274.848C399.804 268.921 392.68 250.74 389.507 242.39C384.993 233.64 386.45 211.695 387.743 201.817C398.181 191.373 398.675 187.351 397.617 186.646C390 186.081 392.798 183.588 395.149 182.412C400.509 182.412 400.908 180.766 400.438 179.942C396.489 179.096 395.266 175.356 395.149 173.592C393.738 168.511 383.747 168.652 378.928 169.358C372.439 169.922 371.757 172.416 372.228 173.592C373.638 179.237 373.521 180.177 373.285 179.942C371.875 184.458 372.698 187.704 373.285 188.763C374.696 191.585 373.168 199.582 372.228 203.228C370.253 209.719 372.11 227.807 373.285 236.039C376.953 239.708 381.866 251.916 383.865 257.561C390.635 271.673 387.861 278.024 385.628 279.435C383.935 280.846 380.691 272.261 379.28 267.792C377.306 264.97 370.229 260.971 366.938 259.325C364.399 259.889 360.473 255.561 358.828 253.327C354.596 244.013 347.896 247.094 345.075 249.799C349.306 254.033 341.431 255.326 336.964 255.444C331.886 253.75 311.104 251.916 301.348 251.21C288.936 250.081 269.376 258.737 261.148 263.206C253.531 263.488 248.336 267.087 246.69 268.851C238.509 267.157 232.702 270.967 230.821 273.084C224.615 272.802 216.481 277.436 213.19 279.788C210.933 281.199 203.786 281.317 200.495 281.199C196.545 281.481 195.088 273.084 194.853 268.851C194.007 266.593 187.448 262.5 184.274 260.736C183.992 255.655 179.925 250.387 177.926 248.388C177.926 239.073 174.87 245.448 173.342 249.799C172.496 251.492 169.228 255.209 167.7 256.855C169.675 259.678 169.463 263.441 169.111 264.97C166.854 268.074 162.763 273.32 161 275.554C164.667 275.272 165.349 277.083 165.232 278.024C165.232 280.564 167.818 283.081 169.111 284.021C173.342 289.102 173.695 292.018 173.342 292.842C169.393 295.664 171.697 299.192 173.342 300.604C174.753 303.708 176.046 305.19 176.516 305.543C177.362 301.027 180.865 303.661 182.511 305.543C188.999 308.365 181.218 310.482 176.516 311.188C175.67 312.599 182.511 320.243 186.037 323.889C191.397 323.042 192.502 325.653 192.384 327.064C190.974 329.322 192.972 329.887 194.148 329.887C202.047 324.806 200.73 331.298 199.084 335.179C201.341 338.284 209.428 343.058 213.19 345.058C223.064 344.211 229.528 347.527 231.527 349.291C236.605 348.445 241.4 350.35 243.164 351.408C255.012 347.175 263.381 348.939 266.085 350.35C274.266 350.068 272.785 358.229 271.022 362.345C268.483 369.402 259.855 379.868 255.858 384.22C248.806 392.405 248.453 399.155 249.158 401.507C251.697 405.741 249.276 425.851 247.748 435.377C246.902 444.974 243.634 457.722 242.106 462.896C240.977 465.719 242.576 479.361 243.516 485.829C244.08 492.885 251.744 497.707 255.506 499.236C254.942 497.542 256.446 495.708 257.269 495.002C258.68 493.873 274.078 498.53 281.601 501C282.729 500.718 281.131 496.884 280.19 495.002C281.883 496.131 284.187 495.473 285.127 495.002C282.87 491.615 273.373 489.122 268.906 488.299Z" fill="#B85E0F"/>
</g>
<g filter="url(#filter1_d_201_2)">
<path d="M105.928 143.448C100.509 143.448 96.0293 142.189 92.488 139.672C88.9893 137.112 87.0907 133.379 86.792 128.472H101.896C102.109 131.075 103.261 132.376 105.352 132.376C106.12 132.376 106.76 132.205 107.272 131.864C107.827 131.48 108.104 130.904 108.104 130.136C108.104 129.069 107.528 128.216 106.376 127.576C105.224 126.893 103.432 126.125 101 125.272C98.0987 124.248 95.688 123.245 93.768 122.264C91.8907 121.283 90.2693 119.853 88.904 117.976C87.5387 116.099 86.8773 113.688 86.92 110.744C86.92 107.8 87.6667 105.304 89.16 103.256C90.696 101.165 92.7653 99.5867 95.368 98.52C98.0133 97.4533 100.979 96.92 104.264 96.92C109.811 96.92 114.205 98.2 117.448 100.76C120.733 103.32 122.461 106.925 122.632 111.576H107.336C107.293 110.296 106.973 109.379 106.376 108.824C105.779 108.269 105.053 107.992 104.2 107.992C103.603 107.992 103.112 108.205 102.728 108.632C102.344 109.016 102.152 109.571 102.152 110.296C102.152 111.32 102.707 112.173 103.816 112.856C104.968 113.496 106.781 114.285 109.256 115.224C112.115 116.291 114.461 117.315 116.296 118.296C118.173 119.277 119.795 120.643 121.16 122.392C122.525 124.141 123.208 126.339 123.208 128.984C123.208 131.757 122.525 134.253 121.16 136.472C119.795 138.648 117.811 140.355 115.208 141.592C112.605 142.829 109.512 143.448 105.928 143.448ZM166.984 97.688V108.952H154.952V143H140.744V108.952H128.84V97.688H166.984ZM196.822 143L188.31 126.744H188.246V143H174.038V97.688H195.158C198.827 97.688 201.963 98.3493 204.566 99.672C207.168 100.952 209.11 102.723 210.39 104.984C211.712 107.203 212.374 109.72 212.374 112.536C212.374 115.565 211.52 118.253 209.814 120.6C208.15 122.947 205.739 124.632 202.582 125.656L212.438 143H196.822ZM188.246 117.272H193.878C195.243 117.272 196.267 116.973 196.95 116.376C197.632 115.736 197.974 114.755 197.974 113.432C197.974 112.237 197.611 111.299 196.886 110.616C196.203 109.933 195.2 109.592 193.878 109.592H188.246V117.272ZM234.001 97.688V123.224C234.001 125.315 234.449 126.979 235.345 128.216C236.283 129.411 237.777 130.008 239.825 130.008C241.873 130.008 243.387 129.411 244.369 128.216C245.35 126.979 245.841 125.315 245.841 123.224V97.688H259.985V123.224C259.985 127.533 259.089 131.224 257.297 134.296C255.505 137.325 253.051 139.608 249.937 141.144C246.822 142.68 243.345 143.448 239.505 143.448C235.665 143.448 232.251 142.68 229.265 141.144C226.321 139.608 224.017 137.325 222.353 134.296C220.689 131.267 219.857 127.576 219.857 123.224V97.688H234.001Z" fill="#EEEEEE"/>
<path d="M287.041 143.448C281.622 143.448 277.142 142.189 273.601 139.672C270.102 137.112 268.203 133.379 267.905 128.472H283.009C283.222 131.075 284.374 132.376 286.465 132.376C287.233 132.376 287.873 132.205 288.385 131.864C288.939 131.48 289.217 130.904 289.217 130.136C289.217 129.069 288.641 128.216 287.489 127.576C286.337 126.893 284.545 126.125 282.113 125.272C279.211 124.248 276.801 123.245 274.881 122.264C273.003 121.283 271.382 119.853 270.017 117.976C268.651 116.099 267.99 113.688 268.033 110.744C268.033 107.8 268.779 105.304 270.273 103.256C271.809 101.165 273.878 99.5867 276.481 98.52C279.126 97.4533 282.091 96.92 285.377 96.92C290.923 96.92 295.318 98.2 298.561 100.76C301.846 103.32 303.574 106.925 303.745 111.576H288.449C288.406 110.296 288.086 109.379 287.489 108.824C286.891 108.269 286.166 107.992 285.313 107.992C284.715 107.992 284.225 108.205 283.841 108.632C283.457 109.016 283.265 109.571 283.265 110.296C283.265 111.32 283.819 112.173 284.929 112.856C286.081 113.496 287.894 114.285 290.369 115.224C293.227 116.291 295.574 117.315 297.409 118.296C299.286 119.277 300.907 120.643 302.273 122.392C303.638 124.141 304.321 126.339 304.321 128.984C304.321 131.757 303.638 134.253 302.273 136.472C300.907 138.648 298.923 140.355 296.321 141.592C293.718 142.829 290.625 143.448 287.041 143.448ZM354.433 97.688V143H340.225V125.336H326.721V143H312.513V97.688H326.721V114.008H340.225V97.688H354.433ZM378.233 97.688V143H364.025V97.688H378.233ZM402.058 109.016V114.584H416.138V125.272H402.058V131.672H418.058V143H387.85V97.688H418.058V109.016H402.058ZM440.821 132.248H454.517V143H426.613V97.688H440.821V132.248ZM481.067 97.688C485.803 97.688 489.942 98.648 493.483 100.568C497.067 102.488 499.819 105.155 501.739 108.568C503.659 111.981 504.619 115.864 504.619 120.216C504.619 124.525 503.659 128.408 501.739 131.864C499.819 135.32 497.067 138.051 493.483 140.056C489.942 142.019 485.803 143 481.067 143H462.187V97.688H481.067ZM479.787 130.328C482.987 130.328 485.526 129.453 487.403 127.704C489.281 125.955 490.219 123.459 490.219 120.216C490.219 116.973 489.281 114.477 487.403 112.728C485.526 110.979 482.987 110.104 479.787 110.104H476.395V130.328H479.787Z" fill="#B85E0F"/>
</g>
</g>
<defs>
<filter id="filter0_i_201_2" x="161" y="169" width="246" height="334" filterUnits="userSpaceOnUse" color-interpolation-filters="sRGB">
<feFlood flood-opacity="0" result="BackgroundImageFix"/>
<feBlend mode="normal" in="SourceGraphic" in2="BackgroundImageFix" result="shape"/>
<feColorMatrix in="SourceAlpha" type="matrix" values="0 0 0 0 0 0 0 0 0 0 0 0 0 0 0 0 0 0 127 0" result="hardAlpha"/>
<feOffset dx="2" dy="2"/>
<feGaussianBlur stdDeviation="2"/>
<feComposite in2="hardAlpha" operator="arithmetic" k2="-1" k3="1"/>
<feColorMatrix type="matrix" values="0 0 0 0 0 0 0 0 0 0 0 0 0 0 0 0 0 0 0.5 0"/>
<feBlend mode="normal" in2="shape" result="effect1_innerShadow_201_2"/>
</filter>
<filter id="filter1_d_201_2" x="84.792" y="94.92" width="425.828" height="54.528" filterUnits="userSpaceOnUse" color-interpolation-filters="sRGB">
<feFlood flood-opacity="0" result="BackgroundImageFix"/>
<feColorMatrix in="SourceAlpha" type="matrix" values="0 0 0 0 0 0 0 0 0 0 0 0 0 0 0 0 0 0 127 0" result="hardAlpha"/>
<feOffset dx="2" dy="2"/>
<feGaussianBlur stdDeviation="2"/>
<feComposite in2="hardAlpha" operator="out"/>
<feColorMatrix type="matrix" values="0 0 0 0 0 0 0 0 0 0 0 0 0 0 0 0 0 0 0.5 0"/>
<feBlend mode="normal" in2="BackgroundImageFix" result="effect1_dropShadow_201_2"/>
<feBlend mode="normal" in="SourceGraphic" in2="effect1_dropShadow_201_2" result="shape"/>
</filter>
<clipPath id="clip0_201_2">
<rect width="592" height="592" fill="white"/>
</clipPath>
</defs>
</svg>
